<svg width="146.28mm" height="15.874mm" version="1.1" viewBox="0 0 146.28 15.874" xmlns="http://www.w3.org/2000/svg" xmlns:xlink="http://www.w3.org/1999/xlink"><defs><linearGradient id="b"><stop stop-color="#0055d4" offset="0"/></linearGradient><linearGradient id="c"><stop stop-color="#338000" offset="0"/></linearGradient><linearGradient id="a" x1="-2.8926" x2="276" y1="25.558" y2="25.558" gradientTransform="matrix(.52449 0 0 .52449 1.4218 -5.4462)" gradientUnits="userSpaceOnUse" xlink:href="#b"/><linearGradient id="e" x1="-2.8926" x2="276" y1="25.558" y2="25.558" gradientTransform="matrix(.52449 0 0 .52449 1.4218 -5.4462)" gradientUnits="userSpaceOnUse" xlink:href="#c"/><linearGradient id="d" x1="103.18" x2="106.29" y1="14.344" y2="14.344" gradientTransform="matrix(.9853 0 0 .9853 1.5935 .22177)" gradientUnits="userSpaceOnUse"><stop stop-color="#929292" offset="0"/></linearGradient></defs><g transform="translate(.095355 -.025881)" stroke-width=".52449"><g fill="url(#a)"><path d="m1.5655 3.9595h6.6872q1.344 0 1.7046 1.049 0.087415 0.30595 0.087415 0.52449v3.0158q0 0.087414-0.087415 0.087414h-2.8847q-0.087414 0-0.087414-0.087414v-1.486h-3.9774v5.7693h3.9774v-1.5298q0.010925-0.08741 0.087414-0.08741h2.8847q0.087415 0.01093 0.087415 0.08741v2.9721q0 1.0599-0.91785 1.486-0.2841 0.13112-0.69931 0.13112h-6.9057q-1.0818 0-1.5298-1.0053-0.087414-0.41522-0.087414-0.65561v-8.6977q0-1.3986 1.6609-1.5735z" style="white-space:pre"/><path d="m13.279 3.9595h6.6872q1.344 0 1.7046 1.049 0.08742 0.30595 0.08742 0.52449v8.7414q0 1.0599-0.91785 1.486-0.2841 0.13112-0.69932 0.13112h-6.9057q-1.0818 0-1.5298-1.0053-0.08741-0.41522-0.08741-0.65561v-8.6977q0-1.3986 1.6609-1.5735zm1.4423 3.1032v5.7693h3.9774v-5.7693z" style="white-space:pre"/><path d="m30.5 0.025881h2.8847q0.08741 0.010925 0.08741 0.087414v14.161q0 1.0599-0.91785 1.486-0.2841 0.13112-0.69932 0.13112h-6.9057q-1.0818 0-1.5298-1.0053-0.08742-0.41522-0.08742-0.65561v-8.6977q0-1.3986 1.6609-1.5735h5.4197v-3.8462q0.01093-0.087414 0.08742-0.087414zm-4.0648 7.0369v5.7693h3.9774v-5.7693z" style="white-space:pre"/><path d="m36.619 3.9595h6.5561q1.8794 0 1.8794 1.6609v4.4581q0 1.3986-1.4423 1.6609h-5.5071v1.0927h6.862q0.08742 0.01093 0.08742 0.08741v2.8847q0 0.08741-0.08742 0.08741h-8.3044q-1.0818 0-1.5298-1.0053-0.08741-0.41522-0.08741-0.65561v-8.654q0-1.1145 1.049-1.5298 0.30595-0.087415 0.52449-0.087415zm1.486 3.1032v1.5735h3.8462v-1.5735z" style="white-space:pre"/><path d="m48.42 3.9595h4.2396q0.08742 0.010925 0.08742 0.087415v2.9284q0 0.087414-0.08742 0.087414h-2.7973v8.7414q0 0.08741-0.08742 0.08741h-2.9284q-0.08742 0-0.08742-0.08741v-10.271q0-1.3986 1.6609-1.5735z" style="white-space:pre"/></g><g fill="url(#e)"><path d="m56.418 3.9595h3.9336q0.99434 0 1.3986 0.43707 0.43707-0.43707 1.3549-0.43707h3.9774q1.344 0 1.7046 1.049 0.08741 0.30595 0.08741 0.52449v10.271q0 0.08741-0.08741 0.08741h-2.8847q-0.08741 0-0.08741-0.08741v-8.7414h-2.382v8.7414q0 0.08741-0.08742 0.08741h-2.9284q-0.08742 0-0.08742-0.08741v-8.7414h-2.4695v8.7414q0 0.08741-0.08742 0.08741h-2.9284q-0.08741 0-0.08741-0.08741v-10.271q0-1.3986 1.6609-1.5735z" style="white-space:pre"/><path d="m71.978 3.9595h6.5124q1.8794 0 1.8794 1.6609v10.184q0 0.08741-0.08741 0.08741h-2.9284q-0.08742 0-0.08742-0.08741v-8.7414h-3.8462v5.7693h2.6224q0.08742 0.01093 0.08742 0.08741v2.8847q0 0.08741-0.08742 0.08741h-4.1085q-1.0818 0-1.5298-1.0053-0.08742-0.41522-0.08742-0.65561v-8.6977q0-1.3986 1.6609-1.5735z" style="white-space:pre"/><path d="m82.118 2.5172h2.8847q0.08742 0.010925 0.08742 0.087414v4.1959h2.5787q0.08742 0.010925 0.08742 0.087415v2.9284q0 0.087414-0.08742 0.087414h-2.5787v2.9284h5.376q0.08741 0.01093 0.08741 0.08741v2.8847q0 0.08741-0.08741 0.08741h-6.8183q-1.0818 0-1.5298-1.0053-0.08742-0.41521-0.08742-0.6556v-11.626q0.01091-0.087414 0.08742-0.087414z" style="white-space:pre"/><path d="m92.378 2.5172h2.8847q0.08742 0.010925 0.08742 0.087414v4.1959h2.5787q0.08741 0.010925 0.08741 0.087415v2.9284q0 0.087414-0.08741 0.087414h-2.5787v2.9284h5.376q0.0874 0.01093 0.0874 0.08741v2.8847q0 0.08741-0.0874 0.08741h-6.8183q-1.0818 0-1.5298-1.0053-0.08741-0.41521-0.08741-0.6556v-11.626q0.01091-0.087414 0.08741-0.087414z" style="white-space:pre"/></g><g fill="url(#a)"><path d="m110.3 3.9595h6.6872q1.344 0 1.7046 1.049 0.0874 0.30595 0.0874 0.52449v3.0158q0 0.087414-0.0874 0.087414h-2.8847q-0.0874 0-0.0874-0.087414v-1.486h-3.9774v5.7693h3.9774v-1.5298q0.0109-0.08741 0.0874-0.08741h2.8847q0.0874 0.01093 0.0874 0.08741v2.9721q0 1.0599-0.91785 1.486-0.2841 0.13112-0.69931 0.13112h-6.9057q-1.0818 0-1.5298-1.0053-0.0874-0.41522-0.0874-0.65561v-8.6977q0-1.3986 1.6609-1.5735z" style="white-space:pre"/><path d="m122.01 3.9595h6.6872q1.344 0 1.7046 1.049 0.0874 0.30595 0.0874 0.52449v8.7414q0 1.0599-0.91785 1.486-0.2841 0.13112-0.69932 0.13112h-6.9057q-1.0818 0-1.5298-1.0053-0.0874-0.41522-0.0874-0.65561v-8.6977q0-1.3986 1.6609-1.5735zm1.4423 3.1032v5.7693h3.9774v-5.7693z" style="white-space:pre"/><path d="m133.73 3.9595h3.9336q0.99434 0 1.3986 0.43707 0.43707-0.43707 1.3549-0.43707h3.9774q1.344 0 1.7046 1.049 0.0874 0.30595 0.0874 0.52449v10.271q0 0.08741-0.0874 0.08741h-2.8847q-0.0874 0-0.0874-0.08741v-8.7414h-2.382v8.7414q0 0.08741-0.0874 0.08741h-2.9284q-0.0874 0-0.0874-0.08741v-8.7414h-2.4694v8.7414q0 0.08741-0.0874 0.08741h-2.9284q-0.0874 0-0.0874-0.08741v-10.271q0-1.3986 1.6609-1.5735z" style="white-space:pre"/></g></g><g transform="translate(.095355 -.025881)"><rect x="103.26" y="12.821" width="3.0665" height="3.0665" ry=".15886" fill="url(#d)" stroke-width=".31558"/></g></svg>
