<svg width="14.117mm" height="11.932mm" version="1.1" viewBox="0 0 14.117 11.932" xmlns="http://www.w3.org/2000/svg" xmlns:xlink="http://www.w3.org/1999/xlink"><defs><linearGradient id="a" x1="-2.8926" x2="276" y1="25.558" y2="25.558" gradientTransform="matrix(.52449 0 0 .52449 43.046 78.494)" gradientUnits="userSpaceOnUse"><stop stop-color="#338000" offset="0"/></linearGradient></defs><g transform="translate(-96.382 -87.9)"><path d="m98.042 87.9h3.9336q0.99434 0 1.3986 0.43707 0.43707-0.43707 1.3549-0.43707h3.9774q1.344 0 1.7046 1.049 0.0874 0.30595 0.0874 0.52449v10.271q0 0.08741-0.0874 0.08741h-2.8847q-0.0874 0-0.0874-0.08741v-8.7414h-2.382v8.7414q0 0.08741-0.0874 0.08741h-2.9284q-0.0874 0-0.0874-0.08741v-8.7414h-2.4695v8.7414q0 0.08741-0.0874 0.08741h-2.9284q-0.0874 0-0.0874-0.08741v-10.271q0-1.3986 1.6609-1.5735z" fill="url(#a)" stroke-width=".52449" style="white-space:pre"/></g></svg>
